<?xml version="1.0" standalone="no"?>
<!DOCTYPE svg PUBLIC "-//W3C//DTD SVG 20010904//EN"
 "http://www.w3.org/TR/2001/REC-SVG-20010904/DTD/svg10.dtd">
<svg version="1.0" xmlns="http://www.w3.org/2000/svg"
 width="500.000000pt" height="500.000000pt" viewBox="0 0 500.000000 500.000000"
 preserveAspectRatio="xMidYMid meet">

<g transform="translate(0.000000,500.000000) scale(0.100000,-0.100000)"
fill="#000000" stroke="none">
<path d="M2985 4034 c-426 -68 -754 -367 -845 -774 -16 -68 -20 -125 -20 -281
0 -187 1 -198 23 -229 38 -57 71 -75 137 -75 65 0 99 18 136 73 20 28 22 49
27 219 3 132 10 206 22 248 60 214 240 401 450 468 58 18 93 22 205 22 120 -1
143 -3 208 -27 106 -38 177 -83 257 -163 116 -117 175 -241 195 -411 5 -49 10
-205 10 -347 0 -286 3 -303 63 -348 30 -23 42 -24 217 -30 157 -5 193 -9 240
-27 97 -39 171 -109 218 -209 24 -52 27 -69 27 -163 0 -96 -3 -110 -29 -162
-33 -66 -100 -138 -160 -173 -96 -56 -75 -55 -1147 -55 l-986 0 -34 -23 c-104
-70 -107 -209 -6 -275 l41 -27 950 -3 c603 -2 986 1 1047 7 179 19 320 85 444
206 83 82 143 178 181 290 23 69 27 97 28 205 1 144 -10 200 -64 315 -115 247
-332 396 -605 413 l-100 7 -6 245 c-7 264 -15 319 -68 455 -92 240 -303 457
-536 554 -128 54 -216 72 -360 76 -71 2 -143 1 -160 -1z"/>
<path d="M1542 3024 c-18 -10 -45 -33 -60 -52 l-27 -35 -3 -770 c-2 -753 -2
-771 18 -811 28 -57 77 -88 139 -88 83 0 143 48 161 128 12 51 12 1457 0 1508
-24 106 -138 166 -228 120z"/>
<path d="M860 2678 c-18 -13 -43 -36 -54 -51 -21 -28 -21 -37 -24 -630 -3
-673 -6 -640 69 -699 29 -23 46 -29 86 -30 61 0 103 20 140 69 l28 36 3 596 2
596 -22 45 c-31 61 -77 90 -143 90 -38 0 -61 -6 -85 -22z"/>
<path d="M201 2353 c-18 -9 -45 -34 -60 -57 l-26 -40 0 -435 c0 -418 1 -437
20 -470 56 -95 175 -113 251 -40 19 19 39 49 45 69 6 22 9 189 7 461 l-3 426
-29 37 c-48 64 -134 84 -205 49z"/>
<path d="M2215 2286 c-37 -16 -83 -68 -91 -102 -11 -41 2 -110 25 -143 62 -87
200 -87 262 0 28 40 36 113 16 160 -32 77 -138 119 -212 85z"/>
</g>
</svg>
